<mxfile host="app.diagrams.net" modified="2022-02-17T01:05:57.365Z" agent="5.0 (Windows NT 10.0; Win64; x64) AppleWebKit/537.36 (KHTML, like Gecko) Chrome/98.0.4758.102 Safari/537.36" etag="UrHdyxfb4P_t2h8MAlZC" version="16.5.6" type="github">
  <diagram id="-bS2B6hv-bBO1aGODT86" name="Page-1">
    <mxGraphModel dx="765" dy="779" grid="1" gridSize="10" guides="1" tooltips="1" connect="1" arrows="1" fold="1" page="1" pageScale="1" pageWidth="827" pageHeight="1169" math="0" shadow="0">
      <root>
        <mxCell id="0" />
        <mxCell id="1" parent="0" />
        <mxCell id="L8mzYx72BAl_0aqSDpgi-12" style="edgeStyle=orthogonalEdgeStyle;rounded=0;orthogonalLoop=1;jettySize=auto;html=1;exitX=0.5;exitY=1;exitDx=0;exitDy=0;entryX=0.5;entryY=0;entryDx=0;entryDy=0;" edge="1" parent="1" source="L8mzYx72BAl_0aqSDpgi-1" target="L8mzYx72BAl_0aqSDpgi-2">
          <mxGeometry relative="1" as="geometry" />
        </mxCell>
        <mxCell id="L8mzYx72BAl_0aqSDpgi-1" value="&lt;font style=&quot;vertical-align: inherit&quot;&gt;&lt;font style=&quot;vertical-align: inherit&quot;&gt;Name&lt;/font&gt;&lt;/font&gt;" style="ellipse;whiteSpace=wrap;html=1;" vertex="1" parent="1">
          <mxGeometry x="185" y="140" width="120" height="80" as="geometry" />
        </mxCell>
        <mxCell id="L8mzYx72BAl_0aqSDpgi-13" style="edgeStyle=orthogonalEdgeStyle;rounded=0;orthogonalLoop=1;jettySize=auto;html=1;exitX=0;exitY=0.5;exitDx=0;exitDy=0;entryX=1;entryY=0.5;entryDx=0;entryDy=0;" edge="1" parent="1" source="L8mzYx72BAl_0aqSDpgi-2" target="L8mzYx72BAl_0aqSDpgi-4">
          <mxGeometry relative="1" as="geometry" />
        </mxCell>
        <mxCell id="L8mzYx72BAl_0aqSDpgi-21" style="edgeStyle=orthogonalEdgeStyle;rounded=0;orthogonalLoop=1;jettySize=auto;html=1;exitX=0.5;exitY=1;exitDx=0;exitDy=0;entryX=0.5;entryY=0;entryDx=0;entryDy=0;" edge="1" parent="1" source="L8mzYx72BAl_0aqSDpgi-2" target="L8mzYx72BAl_0aqSDpgi-5">
          <mxGeometry relative="1" as="geometry" />
        </mxCell>
        <mxCell id="L8mzYx72BAl_0aqSDpgi-2" value="" style="rounded=0;whiteSpace=wrap;html=1;" vertex="1" parent="1">
          <mxGeometry x="170" y="260" width="150" height="90" as="geometry" />
        </mxCell>
        <mxCell id="L8mzYx72BAl_0aqSDpgi-14" style="edgeStyle=orthogonalEdgeStyle;rounded=0;orthogonalLoop=1;jettySize=auto;html=1;entryX=0;entryY=0.5;entryDx=0;entryDy=0;" edge="1" parent="1" source="L8mzYx72BAl_0aqSDpgi-3" target="L8mzYx72BAl_0aqSDpgi-6">
          <mxGeometry relative="1" as="geometry" />
        </mxCell>
        <mxCell id="L8mzYx72BAl_0aqSDpgi-3" value="User" style="rounded=0;whiteSpace=wrap;html=1;" vertex="1" parent="1">
          <mxGeometry x="185" y="275" width="120" height="60" as="geometry" />
        </mxCell>
        <mxCell id="L8mzYx72BAl_0aqSDpgi-4" value="Email" style="ellipse;whiteSpace=wrap;html=1;" vertex="1" parent="1">
          <mxGeometry x="10" y="265" width="120" height="80" as="geometry" />
        </mxCell>
        <mxCell id="L8mzYx72BAl_0aqSDpgi-5" value="customer No." style="ellipse;whiteSpace=wrap;html=1;" vertex="1" parent="1">
          <mxGeometry x="185" y="400" width="120" height="80" as="geometry" />
        </mxCell>
        <mxCell id="L8mzYx72BAl_0aqSDpgi-17" style="edgeStyle=orthogonalEdgeStyle;rounded=0;orthogonalLoop=1;jettySize=auto;html=1;exitX=1;exitY=0.5;exitDx=0;exitDy=0;" edge="1" parent="1" source="L8mzYx72BAl_0aqSDpgi-6">
          <mxGeometry relative="1" as="geometry">
            <mxPoint x="590" y="305" as="targetPoint" />
          </mxGeometry>
        </mxCell>
        <mxCell id="L8mzYx72BAl_0aqSDpgi-6" value="Provide" style="rhombus;whiteSpace=wrap;html=1;" vertex="1" parent="1">
          <mxGeometry x="400" y="265" width="120" height="80" as="geometry" />
        </mxCell>
        <mxCell id="L8mzYx72BAl_0aqSDpgi-7" value="Images" style="ellipse;whiteSpace=wrap;html=1;" vertex="1" parent="1">
          <mxGeometry x="600" y="140" width="120" height="80" as="geometry" />
        </mxCell>
        <mxCell id="L8mzYx72BAl_0aqSDpgi-18" style="edgeStyle=orthogonalEdgeStyle;rounded=0;orthogonalLoop=1;jettySize=auto;html=1;entryX=0.5;entryY=1;entryDx=0;entryDy=0;" edge="1" parent="1" source="L8mzYx72BAl_0aqSDpgi-8" target="L8mzYx72BAl_0aqSDpgi-7">
          <mxGeometry relative="1" as="geometry" />
        </mxCell>
        <mxCell id="L8mzYx72BAl_0aqSDpgi-19" style="edgeStyle=orthogonalEdgeStyle;rounded=0;orthogonalLoop=1;jettySize=auto;html=1;exitX=1;exitY=0.5;exitDx=0;exitDy=0;" edge="1" parent="1" source="L8mzYx72BAl_0aqSDpgi-8">
          <mxGeometry relative="1" as="geometry">
            <mxPoint x="760" y="310" as="targetPoint" />
          </mxGeometry>
        </mxCell>
        <mxCell id="L8mzYx72BAl_0aqSDpgi-20" style="edgeStyle=orthogonalEdgeStyle;rounded=0;orthogonalLoop=1;jettySize=auto;html=1;" edge="1" parent="1" source="L8mzYx72BAl_0aqSDpgi-8">
          <mxGeometry relative="1" as="geometry">
            <mxPoint x="660" y="400" as="targetPoint" />
          </mxGeometry>
        </mxCell>
        <mxCell id="L8mzYx72BAl_0aqSDpgi-8" value="Review" style="rounded=0;whiteSpace=wrap;html=1;" vertex="1" parent="1">
          <mxGeometry x="600" y="270" width="120" height="80" as="geometry" />
        </mxCell>
        <mxCell id="L8mzYx72BAl_0aqSDpgi-9" value="Rating" style="ellipse;whiteSpace=wrap;html=1;" vertex="1" parent="1">
          <mxGeometry x="770" y="265" width="120" height="80" as="geometry" />
        </mxCell>
        <mxCell id="L8mzYx72BAl_0aqSDpgi-10" value="Descriptions" style="ellipse;whiteSpace=wrap;html=1;" vertex="1" parent="1">
          <mxGeometry x="600" y="410" width="130" height="80" as="geometry" />
        </mxCell>
        <mxCell id="L8mzYx72BAl_0aqSDpgi-22" value="Attrbutes" style="text;html=1;align=center;verticalAlign=middle;resizable=0;points=[];autosize=1;strokeColor=none;fillColor=none;" vertex="1" parent="1">
          <mxGeometry x="215" y="100" width="60" height="20" as="geometry" />
        </mxCell>
        <mxCell id="L8mzYx72BAl_0aqSDpgi-23" value="Attributes" style="text;html=1;align=center;verticalAlign=middle;resizable=0;points=[];autosize=1;strokeColor=none;fillColor=none;" vertex="1" parent="1">
          <mxGeometry x="625" y="100" width="70" height="20" as="geometry" />
        </mxCell>
      </root>
    </mxGraphModel>
  </diagram>
</mxfile>
